<svg version="1" xmlns="http://www.w3.org/2000/svg" width="682.667" height="682.667" viewBox="0 0 512.000000 512.000000"><path d="M241.8 45.5c-.2.2-3.4.6-7.1 1-3.7.3-7.8.8-9 1.1-1.2.2-4.2.7-6.7 1-2.5.3-4.8.8-5.1 1-.3.2-2.1.6-4 .9-9.2 1.6-26.3 7.3-39.8 13.4-35.1 15.7-66.7 42.3-88.2 74.2-10.8 16.1-20.3 35.6-26.1 53.3-2.3 7.3-6.5 24.5-7.3 30.1-.3 2.3-.7 5.1-1 6.3-2.1 11-2.1 41.5.1 55.7 2 13.6 2.3 15.2 4.4 23.5 15 58.9 54.1 108.4 107.5 135.9 21.7 11.2 45.7 19 66.5 21.6 2.5.3 6.5.8 9 1.2 6 .9 33.7.9 42.5.1 3.9-.4 10.8-1.5 15.5-2.4 10.8-2 12.1-2.3 14.5-2.8 2.9-.7 18.7-5.5 20.5-6.3.8-.3 1.8-.7 2.2-.7.3-.1 1-.4 1.4-.8.4-.5 1.3-.8 2.1-.8 2.4 0 24.6-11.2 34.3-17.2 14-8.9 25.2-17.8 37-29.7 12.6-12.6 15.2-15.7 23.7-27.9 18.2-26 31.9-59.3 35.7-86.7.3-2.2.8-5.6 1.1-7.5 1-6.1 1.5-15.1 1.5-28 0-12.3-.2-15.2-1.6-26-.4-3-.8-6-.8-6.5-.5-3.7-2.1-11.4-4.3-20-16.9-65.4-66.1-119.9-129.8-143.7-11.4-4.3-28.2-8.9-37-10.3-2.2-.3-7.1-1.1-11-1.6-6.1-1-39.9-2.1-40.7-1.4zm35.7 105.9c14.5 4 28.3 14.2 33.7 25.1 5.8 11.5 7.7 26.2 5.1 38.9-3 14.2-8.2 21.5-32.3 45.1-9.8 9.6-13.8 16.8-14.6 26.6-.3 3.5-.7 6.9-.9 7.5-.2.8-6.1 1.1-18.5 1.1l-18.2-.1.6-9.5c.7-11.8 3.3-21.3 7.7-28.7 1.9-3.1 9.5-11.8 16.9-19.3 16.8-16.9 18.5-19.9 18.5-32.6 0-8.1-.3-9.5-2.8-13.8-3.9-6.6-8.9-9-18.7-9.1-6.5 0-8.3.4-12.2 2.7-6.6 3.8-10.6 10.3-11.2 17.8l-.3 3.4-20.6.3-20.7.2v-3.8c0-24.8 17.5-45.7 43.8-52.2 9.9-2.4 35.3-2.2 44.7.4zm-13.8 169.9c7.1 4.5 10.3 10.3 10.3 18.4-.1 12.7-9.3 21.2-23.1 21.3-12.7 0-21.4-7.1-22.8-18.7-.7-6.8.4-11.1 4.3-15.9 3.8-4.7 7-6.6 13.5-7.9 6.8-1.4 12.6-.4 17.8 2.8z"/></svg>